<svg xmlns="http://www.w3.org/2000/svg" aria-hidden="true" class="icon icon-accordion icon-clipboard" viewBox="0 0 20 20">
  <path d="M6.311 9.136a.25.25 0 0 1 .25-.25h7.185a.25.25 0 0 1 0 .5H6.561a.25.25 0 0 1-.25-.25m0 4.918a.25.25 0 0 1 .25-.25h6.878a.25.25 0 0 1 0 .5H6.561a.25.25 0 0 1-.25-.25m.615-2.459a.25.25 0 0 1 .25-.25h5.648a.25.25 0 1 1 0 .5H7.176a.25.25 0 0 1-.25-.25m-1.73-9.817a1.5 1.5 0 0 1 1.5-1.5h6.608a1.5 1.5 0 0 1 1.5 1.5v1.69a1.5 1.5 0 0 1-1.5 1.5H6.696a1.5 1.5 0 0 1-1.5-1.5zm1.5-.5a.5.5 0 0 0-.5.5v1.69a.5.5 0 0 0 .5.5h6.608a.5.5 0 0 0 .5-.5v-1.69a.5.5 0 0 0-.5-.5z"/>
  <path d="M3.737 2.508v16.215h12.526V2.508h-1.765v-1h1.765a1 1 0 0 1 1 1v16.215a1 1 0 0 1-1 1H3.737a1 1 0 0 1-1-1V2.508a1 1 0 0 1 1-1H5.76v1z"/>
</svg>
